<svg preserveAspectRatio="none" width="100%" height="100%" overflow="visible" style="display: block;" viewBox="0 0 74 49" fill="none" xmlns="http://www.w3.org/2000/svg">
<g id="image-1" clip-path="url(#clip0_0_4)">
<path id="figure103" fill-rule="evenodd" clip-rule="evenodd" d="M69.2496 0.582138C69.0351 0.779269 68.2961 1.5858 67.6072 2.37449C65.9162 4.30995 64.6545 5.58357 63.3645 6.6572C62.2687 7.56923 61.7173 7.79807 61.8759 7.27536C61.9224 7.1219 62.0312 6.67297 62.1178 6.27744C62.3563 5.18772 63.3481 2.97274 63.9206 2.25114C64.2547 1.83026 64.259 1.7874 64.0099 1.37465C63.7202 0.894647 63.1919 0.735444 62.8449 1.02341C62.5277 1.28668 61.9584 2.34341 61.43 3.64987C61.1818 4.26341 60.92 4.90883 60.8481 5.08413C60.3622 6.27058 60.0918 8.61226 60.3788 9.14851C60.4658 9.31106 60.4367 9.70963 60.3022 10.1957C60.1826 10.6274 59.8599 11.8052 59.5849 12.8132C59.0725 14.69 58.2508 17.2639 57.9822 17.8331C57.8995 18.0084 57.6467 18.6539 57.4206 19.2674C56.8558 20.7992 54.8314 25.4825 54.3551 26.359C52.7986 29.2233 52.0091 30.4258 50.1528 32.7597C48.6779 34.614 46.2438 37.138 46.0843 36.9786C46.0266 36.9208 46.1576 36.6771 46.3753 36.4371C47.434 35.2693 48.2478 33.752 48.9678 31.6037C49.4983 30.0207 49.6182 29.101 49.6201 26.5981C49.6212 24.9919 49.5528 24.3115 49.316 23.5702C48.9312 22.3657 48.1528 20.7813 47.946 20.7813C47.8596 20.7813 47.7889 20.6873 47.7889 20.5726C47.7889 20.2515 44.6325 17.2271 43.6454 16.6025C42.4113 15.8217 40.5163 14.8899 39.6083 14.6177C38.8599 14.3931 38.0508 14.291 36.0757 14.1713C33.0105 13.9855 26.9112 17.1147 24.5804 20.0688C23.5697 21.3499 22.4456 23.7963 21.8663 25.9753C21.4169 27.6658 21.4489 31.5109 21.923 32.8132C22.3841 34.0792 22.7001 34.7033 23.4296 35.7874C25.1358 38.323 27.5442 39.8315 30.6175 40.2897C31.034 40.3517 31.3745 40.4656 31.3745 40.5429C31.3745 40.6202 31.2132 40.6486 31.0159 40.606C30.8187 40.5637 30.2988 40.4637 29.8606 40.384C27.6622 39.9848 23.287 37.8502 20.5517 35.8425C17.1997 33.3823 14.1388 29.1941 12.2813 24.5264C12.1069 24.0881 11.735 23.1558 11.4547 22.4546C10.6964 20.5571 10.4717 19.5963 10.6663 19.0844C10.7764 18.7949 10.7767 18.624 10.6673 18.5563C10.5783 18.5013 11.0416 18 11.6969 17.4421C12.3524 16.8841 12.8902 16.3853 12.8923 16.3337C12.8944 16.2819 13.3605 15.7405 13.9281 15.1307C14.7498 14.2478 14.9602 13.9182 14.9602 13.5142C14.9602 12.7001 14.0752 12.5356 13.4849 13.2398C12.401 14.5335 10.9994 16.0029 10.2802 16.5998L9.46216 17.2789L8.87586 16.6451C7.19539 14.8282 5.63857 11.5348 5.14328 8.74947C5.01897 8.05098 4.71236 7.72652 4.16893 7.71871C3.37993 7.7074 3.34423 8.67058 4.05403 10.8212C4.95746 13.5582 5.62041 14.9737 6.65563 16.375C7.02152 16.8703 7.24782 17.2754 7.15873 17.2754C6.98535 17.2754 5.05818 16.2809 4.72288 16.0185C3.08845 14.7388 1.89244 13.1912 1.89244 12.3558C1.89244 11.5453 1.75315 11.379 1.07459 11.379C0.225505 11.379 0.0350665 11.8472 0.389011 13.0648C0.527178 13.5399 0.68925 13.9288 0.74933 13.9288C0.809409 13.9288 0.956979 14.1512 1.0773 14.4233C1.45499 15.2766 2.9965 16.7688 4.30343 17.5461C4.99061 17.955 5.53547 18.3069 5.51411 18.3283C5.41068 18.4317 2.53515 17.7538 2.01053 17.5021C1.01881 17.0266 0.177538 17.5688 0.621044 18.3974C0.768454 18.673 2.01021 19.2738 2.69881 19.4027C2.91268 19.4427 3.26694 19.5198 3.48606 19.5739C3.70519 19.628 4.38646 19.7399 5.00001 19.8225C5.61355 19.9052 6.25897 20.0044 6.43427 20.0432C6.60957 20.0819 7.22853 20.1648 7.80973 20.2272C8.39092 20.2895 8.93499 20.3861 9.01849 20.4414C9.10216 20.4969 9.40527 21.2779 9.69212 22.177C9.97897 23.076 10.2776 23.8511 10.3559 23.8996C10.4341 23.9479 10.498 24.0889 10.498 24.2131C10.498 24.5745 11.7955 27.3346 12.9302 29.3869C14.4089 32.0617 16.7038 34.8387 18.8392 36.538C20.1532 37.5836 22.0749 38.7656 24.0834 39.7635C24.9818 40.21 25.8964 40.6674 26.1155 40.7799C27.3721 41.425 29.6003 42.0309 30.8873 42.0776C32.4134 42.1327 32.4153 42.1342 32.7621 43.57C33.8706 48.16 33.9672 53.1079 33.0419 57.9128C32.8985 58.6578 32.7433 59.4647 32.6971 59.706C32.648 59.9625 32.7136 60.2978 32.8553 60.5139C33.0406 60.797 33.1391 61.7955 33.2759 64.7767C33.4462 68.4908 33.7152 72.9734 33.8395 74.1678C33.8714 74.4746 33.9412 75.1917 33.9947 75.7614C34.2429 78.4073 34.592 81.6594 34.7132 82.4546C34.807 83.0704 34.7925 83.3652 34.6644 83.4457C34.5642 83.5087 33.9442 83.5579 33.2869 83.5551C31.7613 83.5484 26.5323 84.37 24.2416 84.9762C23.16 85.2626 22.9598 85.506 23.2615 86.1678C23.461 86.6057 23.869 86.7869 24.2204 86.5938C24.9372 86.1997 31.4883 85.1734 34.0442 85.0547C35.5527 84.9847 36.2085 84.8935 36.3394 84.7358C36.4787 84.5678 36.4367 83.7797 36.164 81.4529C35.9667 79.7688 35.7775 78.0323 35.7438 77.5941C35.71 77.1558 35.6449 76.56 35.5994 76.2699C35.5539 75.9797 35.4821 75.2626 35.4398 74.6763C35.3976 74.0899 35.3269 73.2156 35.2827 72.7335C35.11 70.8516 35.0445 69.6816 34.9611 66.9965C34.9135 65.4626 34.8319 63.5179 34.7798 62.675L34.6851 61.1425L36.4959 61.0604C37.492 61.0151 39.837 60.9675 41.7071 60.9542C45.4486 60.9278 47.0548 61.1143 46.9246 61.5598C46.7681 62.0958 46.368 63.7466 46.2969 64.1498C46.2563 64.3809 46.1119 64.9546 45.9763 65.4247C45.8408 65.8948 45.5801 66.9606 45.397 67.7933C45.214 68.626 44.855 70.1678 44.5994 71.2196C44.0709 73.3928 42.9681 78.1958 42.5281 80.2414C42.0284 82.5641 41.8038 84.7627 42.0182 85.2335C42.193 85.617 42.2744 85.6419 43.3589 85.6419C45.1457 85.6419 49.5517 85.9643 51.9192 86.2682C54.2497 86.5675 54.7973 86.49 54.7995 85.8605C54.8011 85.4457 54.5205 85.1982 53.8202 84.9974C52.88 84.7276 49.1216 84.3358 45.3187 84.1112C44.3546 84.0542 43.5442 83.9891 43.5178 83.9667C43.3906 83.8583 44.1688 79.8612 44.9291 76.7176C45.4948 74.378 45.4873 74.4111 45.7847 72.9726C45.9116 72.359 46.1619 71.2833 46.3412 70.5821C46.5203 69.8809 46.7747 68.8411 46.9063 68.2714C47.1807 67.0841 48.2813 62.5531 48.7256 60.7813C50.0202 55.6194 50.2467 53.1117 49.7809 49.0924C49.6464 47.9326 49.4993 46.8073 49.4537 46.5917C49.4083 46.3761 49.2988 45.8253 49.2102 45.3678C48.9712 44.1319 48.1839 41.9308 47.3823 40.2574C46.9924 39.4433 46.6733 38.7217 46.6733 38.6539C46.6733 38.5861 46.9063 38.3586 47.1912 38.1485C48.1055 37.4739 48.7522 36.8311 50.0736 35.2833C50.7844 34.4507 51.4936 33.6304 51.6493 33.4604C51.805 33.2905 51.9323 33.1044 51.9323 33.0465C51.9323 32.9888 52.0826 32.7694 52.2665 32.5587C55.3788 28.9914 59.6359 19.2381 61.6947 10.9573L61.859 10.2964L63.8677 10.3198C65.6858 10.3409 66.0051 10.3001 67.2311 9.8905C68.7219 9.39234 73.3626 7.31011 73.8048 6.94086C74.4131 6.43297 73.9065 5.54182 73.1009 5.70294C72.852 5.75282 71.9135 6.14612 71.0155 6.5772C68.4448 7.81098 67.2783 8.25497 68.5857 7.50198C69.375 7.04748 71.6363 5.5627 72.8088 4.72955C73.4338 4.28525 73.691 3.99568 73.7052 3.71983C73.7611 2.63584 73.1839 2.58022 71.7729 3.53353C71.1594 3.94819 70.5857 4.36397 70.498 4.45783C70.0886 4.89592 66.6712 6.81226 65.5163 7.2513C65.1442 7.39281 65.1297 7.38262 65.3348 7.12397C65.4575 6.96939 65.9799 6.4113 66.4958 5.88381C68.1597 4.18262 70.7371 1.18532 70.7371 0.95154C70.7371 0.630106 70.2907 0.223572 69.9377 0.223572C69.7736 0.223572 69.4639 0.385006 69.2496 0.582138ZM37.0319 15.8586C38.2435 15.8264 39.3731 16.0758 40.3925 16.6005C40.5602 16.6867 41.0199 16.9219 41.4144 17.1233C42.8658 17.8644 44.1065 18.8244 45.4234 20.225C47.8379 22.7933 48.487 25.0417 47.9431 28.953C47.579 31.5713 46.2971 34.3552 44.794 35.7925C42.9957 37.5119 40.3316 38.9648 38.5677 39.1879C38.2489 39.2284 37.8002 39.3021 37.5705 39.3522C36.8561 39.5076 32.5194 39.109 30.742 38.7246C28.7736 38.2988 27.2577 37.6234 26.3474 36.7667C24.3992 34.9327 23.2551 32.6999 23.0153 30.2634C22.8666 28.7533 23.3584 25.9103 24.0352 24.367C25.2673 21.5581 25.69 20.9334 27.2311 19.643C29.655 17.6135 34.3962 15.4202 35.5179 15.8094C35.6494 15.8551 36.3307 15.8771 37.0319 15.8586ZM44.0679 21.5515C43.7726 21.8778 43.7865 22.2475 44.1167 22.8497C44.4628 23.4811 44.7302 23.6747 45.1825 23.6207C45.7842 23.5488 45.9927 23.1482 45.7205 22.5866C45.6005 22.3386 45.5119 22.0907 45.5237 22.0354C45.5568 21.8801 45.0381 21.468 44.6682 21.3557C44.4494 21.2892 44.245 21.356 44.0679 21.5515ZM37.9146 22.0864C37.5208 22.509 37.5219 22.3751 37.8974 24.1705C38.0666 24.9797 38.3273 26.359 38.4768 27.2355C38.8022 29.1434 39.0491 29.7056 39.5611 29.7056C40.0078 29.7056 40.4104 29.2658 40.3632 28.8292C40.3444 28.6539 40.0628 27.112 39.7375 25.4029C39.0422 21.7482 38.7407 21.1997 37.9146 22.0864ZM30.4183 24.5264C30.4183 24.6578 30.3466 24.7654 30.259 24.7654C30.0875 24.7654 30.0475 25.5912 30.1928 26.1321C30.2418 26.3143 30.495 26.5892 30.7559 26.7431C31.3815 27.1128 31.6932 26.8674 31.6932 26.0051C31.6932 25.0924 31.2739 24.2873 30.7986 24.2873C30.5669 24.2873 30.4183 24.3807 30.4183 24.5264ZM29.063 30.1276C28.8724 30.3182 28.8344 30.5605 28.9077 31.1184C28.961 31.5246 29.0363 32.0956 29.0751 32.3872C29.1799 33.1762 30.0394 34.8513 30.7584 35.668C31.9638 37.0376 34.0966 37.7358 36.3066 37.4843C37.3374 37.367 37.7594 37.2437 38.9442 36.7131C39.7332 36.3598 42.0537 34.2376 42.0467 33.8757C42.0332 33.1668 41.7611 33.0645 38.3068 32.4684C37.4303 32.3171 36.6773 32.1836 36.6335 32.1716C36.5896 32.1597 36.3387 32.0961 36.0757 32.0303C35.8128 31.9646 35.4183 31.8502 35.1992 31.7762C34.9801 31.7023 34.263 31.4875 33.6056 31.2991C32.3567 30.941 30.7712 30.3702 30.498 30.1801C30.1092 29.9096 29.3103 29.8803 29.063 30.1276ZM35.757 33.535C36.5458 33.7093 37.514 33.9179 37.9084 33.9986C39.6051 34.3452 39.5463 34.3208 39.3264 34.5858C38.7318 35.3021 36.5468 36.0202 35.0398 35.9946C33.4579 35.9675 31.8075 34.8663 31.102 33.3668C30.3914 31.8566 30.3312 31.8911 32.4446 32.5938C33.4776 32.937 34.9681 33.3606 35.757 33.535ZM44.7503 38.9388C45.7549 39.8771 47.4314 44.0876 47.8638 46.7574C47.9984 47.5901 48.1563 48.4865 48.2147 48.7495C48.2728 49.0124 48.3187 50.626 48.3167 52.3351C48.3133 55.0604 48.2618 55.6859 47.8982 57.4201C47.6701 58.5076 47.4174 59.4636 47.3364 59.5445C47.2464 59.6346 46.5782 59.6175 45.6166 59.5009C44.5106 59.3667 42.6128 59.3425 39.2231 59.4191C36.5718 59.4792 34.4024 59.4969 34.4024 59.4585C34.4024 59.4202 34.5057 58.7879 34.6319 58.0532C35.1066 55.2894 35.2311 53.9429 35.2198 51.6977C35.1995 47.7294 34.5568 43.428 33.6792 41.3887L33.4606 40.8803L35.8837 40.9029C38.0767 40.9235 38.4432 40.8856 39.7425 40.5031C41.451 40.0003 42.7259 39.4473 43.4771 38.8829C43.7791 38.6561 44.0763 38.4706 44.1377 38.4706C44.1991 38.4706 44.4748 38.6813 44.7503 38.9388Z" fill="var(--fill-0, white)"/>
</g>
<defs>
<clipPath id="clip0_0_4">
<rect width="74" height="49" fill="white"/>
</clipPath>
</defs>
</svg>
